<?xml version="1.0" encoding="UTF-8" standalone="no"?>
<!-- Created with Inkscape (http://www.inkscape.org/) -->

<svg
   xmlns:dc="http://purl.org/dc/elements/1.1/"
   xmlns:cc="http://creativecommons.org/ns#"
   xmlns:rdf="http://www.w3.org/1999/02/22-rdf-syntax-ns#"
   xmlns:svg="http://www.w3.org/2000/svg"
   xmlns="http://www.w3.org/2000/svg"
   version="1.1"
   width="892.91339"
   height="178.22835"
   id="svg4069">
  <defs
     id="defs4071">
    <clipPath
       id="clipPath3015">
      <path
         d="m 180,2451.92 0,827 172,0 0,-827"
         id="path3017" />
    </clipPath>
  </defs>
  <metadata
     id="metadata4074">
    <rdf:RDF>
      <cc:Work
         rdf:about="">
        <dc:format>image/svg+xml</dc:format>
        <dc:type
           rdf:resource="http://purl.org/dc/dcmitype/StillImage" />
        <dc:title></dc:title>
      </cc:Work>
    </rdf:RDF>
  </metadata>
  <g
     transform="translate(21.746773,-411.77767)"
     id="layer1">
    <g
       transform="matrix(0,1.0759596,1.0759596,0,-2659.9748,213.63199)"
       id="g3011">
      <g
         clip-path="url(#clipPath3015)"
         id="g3013">
        <path
           d="m 261.594,2996.34 c -4.961,8.56 -9.188,13.25 -14.774,17.74 1.168,-3.32 1.774,-6.83 1.774,-10.33 0,-11.49 -5.688,-21.5 -15.164,-27.99 -6.504,-4.46 -13.621,-5.84 -20.559,-5.84 -10.308,0.02 -19.492,4.78 -25.422,12.15 3.258,-27.26 26.512,-48.41 54.723,-48.41 13.289,0 25.476,4.7 34.996,12.51 -1.445,17.61 -6.848,35.12 -15.574,50.17"
           id="path3019"
           style="fill:#e3182c;fill-opacity:1;fill-rule:nonzero;stroke:none" />
        <path
           d="m 212.941,3035.27 c 2.047,0.2 4.422,0.21 5.532,0.21 24.468,0 42.933,-18.89 51.777,-34.54 4.961,-8.78 12.563,-24.98 15.578,-45.86 7.184,9.29 11.457,20.93 11.457,33.57 0,30.37 -24.676,54.99 -55.113,54.99 -10.738,0 -20.758,-3.07 -29.231,-8.37"
           id="path3021"
           style="fill:#e3182c;fill-opacity:1;fill-rule:nonzero;stroke:none" />
        <path
           d="m 189.703,3001.63 c 0.024,-12.46 10.414,-22.59 23.168,-22.59 12.746,0 23.133,10.13 23.156,22.6 -0.023,12.45 -10.41,22.58 -23.156,22.58 -12.754,0 -23.144,-10.13 -23.168,-22.59"
           id="path3023"
           style="fill:#e3182c;fill-opacity:1;fill-rule:nonzero;stroke:none" />
        <path
           d="m 346.496,3192.02 -150.312,0 0,17.78 136.351,0 0,68.76 13.961,0 0,-86.54"
           id="path3025"
           style="fill:#e3182c;fill-opacity:1;fill-rule:nonzero;stroke:none" />
        <path
           d="m 346.496,3081.06 -150.312,0 0,88.9 13.527,0 0,-71.55 53.039,0 0,54.41 13.527,0 0,-54.41 56.473,0 0,72.62 13.746,0 0,-89.97"
           id="path3027"
           style="fill:#e3182c;fill-opacity:1;fill-rule:nonzero;stroke:none" />
        <path
           d="m 218.727,2819.21 0,-19.91 105.003,0 0,19.91 c 0,16.07 3.223,47.56 -52.394,47.56 -55.398,0 -52.609,-31.49 -52.609,-47.56 z m 127.769,-3.85 0,-46.91 -150.312,0 0,46.91 c 0,26.99 -3.223,84.4 75.152,84.4 78.164,0 75.16,-57.41 75.16,-84.4"
           id="path3029"
           style="fill:#e3182c;fill-opacity:1;fill-rule:nonzero;stroke:none" />
        <path
           d="m 346.496,2645.7 -150.312,0 0,99.18 23.187,0 0,-67.9 38.867,0 0,47.56 22.762,0 0,-47.56 42.301,0 0,69.4 23.195,0 0,-100.68"
           id="path3031"
           style="fill:#e3182c;fill-opacity:1;fill-rule:nonzero;stroke:none" />
        <path
           d="m 196.184,2619.79 150.312,0 0,-30.42 -127.34,2.57 0,-3.21 127.34,-35.78 0,-35.13 -127.34,-34.06 0,-3.64 127.34,1.07 0,-25.92 -150.312,0 0,51.84 114.019,29.35 0,2.14 -114.019,30.85 0,50.34"
           id="path3033"
           style="fill:#e3182c;fill-opacity:1;fill-rule:nonzero;stroke:none" />
      </g>
    </g>
  </g>
</svg>
